<?xml version="1.0" encoding="UTF-8" standalone="no"?>
<svg
   xmlns:dc="http://purl.org/dc/elements/1.1/"
   xmlns:cc="http://creativecommons.org/ns#"
   xmlns:rdf="http://www.w3.org/1999/02/22-rdf-syntax-ns#"
   xmlns:svg="http://www.w3.org/2000/svg"
   xmlns="http://www.w3.org/2000/svg"
   viewBox="0 0 316.31732 313.02667"
   height="313.02667"
   width="316.31732"
   xml:space="preserve"
   id="svg2"
   version="1.1"><metadata
     id="metadata8"><rdf:RDF><cc:Work
         rdf:about=""><dc:format>image/svg+xml</dc:format><dc:type
           rdf:resource="http://purl.org/dc/dcmitype/StillImage" /></cc:Work></rdf:RDF></metadata><defs
     id="defs6"><clipPath
       id="clipPath18"
       clipPathUnits="userSpaceOnUse"><path
         id="path16"
         d="M 0,234.77 H 237.238 V 0 H 0 Z" /></clipPath><clipPath
       id="clipPath40"
       clipPathUnits="userSpaceOnUse"><path
         id="path38"
         d="m 39.65,164.55 h 77.45 v 13.77 H 39.65 Z" /></clipPath><clipPath
       id="clipPath48"
       clipPathUnits="userSpaceOnUse"><path
         id="path46"
         d="m 39.65,150.74 h 77.45 v 13.78 H 39.65 Z" /></clipPath><clipPath
       id="clipPath56"
       clipPathUnits="userSpaceOnUse"><path
         id="path54"
         d="M 0,234.77 H 237.238 V 0 H 0 Z" /></clipPath><clipPath
       id="clipPath196"
       clipPathUnits="userSpaceOnUse"><path
         id="path194"
         d="M 0,234.77 H 237.238 V 0 H 0 Z" /></clipPath></defs><g
     transform="matrix(1.3333333,0,0,-1.3333333,0,313.02667)"
     id="g10"><g
       id="g12"><g
         clip-path="url(#clipPath18)"
         id="g14"><g
           transform="translate(72,104.4698)"
           id="g20"><path
             id="path22"
             style="fill:none;stroke:#000000;stroke-width:0.25;stroke-linecap:butt;stroke-linejoin:miter;stroke-miterlimit:10;stroke-dasharray:none;stroke-opacity:1"
             d="M 0,0 C 0,-19.054 -15.446,-34.5 -34.5,-34.5 -53.554,-34.5 -69,-19.054 -69,0 -69,19.054 -53.554,34.5 -34.5,34.5 -15.446,34.5 0,19.054 0,0 Z" /></g><g
           transform="translate(37.4686,-18.8995)"
           id="g24"><path
             id="path26"
             style="fill:none;stroke:#000000;stroke-width:0.25;stroke-linecap:butt;stroke-linejoin:miter;stroke-miterlimit:10;stroke-dasharray:none;stroke-opacity:1"
             d="M 0,0 V 245.278" /></g><g
           transform="translate(215.5394,104.1638)"
           id="g28"><path
             id="path30"
             style="fill:none;stroke:#000000;stroke-width:0.25;stroke-linecap:butt;stroke-linejoin:miter;stroke-miterlimit:10;stroke-dasharray:none;stroke-opacity:1"
             d="M 0,0 H -213.905" /></g><path
           id="path32"
           style="fill:#ffffff;fill-opacity:1;fill-rule:evenodd;stroke:none"
           d="M 77.836,116.998 H 47.133 v 35.646 h 30.703 z" /></g></g><g
       id="g34"><g
         clip-path="url(#clipPath40)"
         id="g36" /></g><g
       id="g42"><g
         clip-path="url(#clipPath48)"
         id="g44" /></g><g
       id="g50"><g
         clip-path="url(#clipPath56)"
         id="g52" /></g><path
       id="path58"
       style="fill:#a30000;fill-opacity:1;fill-rule:nonzero;stroke:none"
       d="m 45.992,116.549 h 21.914 v 37.653 H 45.992 Z m 12.411,7.358 -1.738,0.277 -1.596,0.52 -1.453,0.625 -1.384,0.833 -1.206,1.006 -1.098,1.147 -0.887,1.282 -0.674,1.423 -0.532,1.528 -0.284,1.665 -0.141,1.736 0.07,1.527 0.249,1.388 0.354,1.388 0.532,1.249 0.674,1.111 0.993,1.284 1.17,1.11 1.241,0.971 1.384,0.73 1.95,0.762 2.021,0.451 2.022,0.14 1.594,-0.069 1.702,-0.312 1.1,-0.382 0.958,-0.416 0.921,-0.556 v -7.982 l -0.673,0.729 -0.78,0.625 -0.886,0.451 -1.384,0.451 -1.346,0.139 -1.029,-0.069 -0.958,-0.174 -0.78,-0.382 -0.745,-0.521 -0.532,-0.589 -0.425,-0.73 -0.319,-0.762 -0.178,-0.868 -0.106,-0.937 0.106,-1.007 0.284,-0.902 0.461,-0.764 0.567,-0.658 0.745,-0.556 0.886,-0.346 0.958,-0.244 1.065,-0.069 1.311,0.103 1.347,0.383 1.241,0.694 1.17,0.902 v -7.982 l -1.382,-0.659 -1.49,-0.417 -1.631,-0.277 -1.631,-0.071 z" /><g
       transform="translate(60.0697,148.0602)"
       id="g60"><path
         id="path62"
         style="fill:none;stroke:#a30000;stroke-width:0.20100001;stroke-linecap:butt;stroke-linejoin:round;stroke-miterlimit:10;stroke-dasharray:none;stroke-opacity:1"
         d="m 0,0 -2.022,-0.139 -2.021,-0.451 -1.95,-0.763 -1.383,-0.73 -1.241,-0.971 -1.171,-1.111 -0.992,-1.283 -0.674,-1.111 -0.532,-1.249 -0.355,-1.388 -0.248,-1.389 -0.071,-1.526 0.142,-1.735 0.284,-1.666 0.532,-1.528 0.673,-1.422 0.887,-1.284 1.099,-1.146 1.206,-1.006 1.383,-0.833 1.453,-0.625 1.596,-0.52 1.738,-0.278 1.808,-0.07 1.631,0.07 1.631,0.278 1.49,0.416 1.383,0.66 v 7.982 l -1.171,-0.902 -1.24,-0.694 -1.348,-0.383 -1.311,-0.104 -1.065,0.07 -0.957,0.243 -0.887,0.347 -0.744,0.555 -0.568,0.659 -0.461,0.764 -0.283,0.902 -0.107,1.007 0.107,0.937 0.177,0.868 0.319,0.762 0.426,0.73 0.531,0.589 0.745,0.521 0.78,0.382 0.958,0.174 1.029,0.068 1.346,-0.138 1.384,-0.451 0.886,-0.451 0.78,-0.626 0.674,-0.728 v 7.982 L 5.354,-1.179 4.396,-0.764 3.297,-0.381 1.595,-0.07 Z M -14.078,6.142 H 7.836 v -37.653 h -21.914 z" /></g><g
       transform="translate(71.6644,147.4002)"
       id="g64"><path
         id="path66"
         style="fill:#a30000;fill-opacity:1;fill-rule:evenodd;stroke:none"
         d="m 0,0 v -22.903 h 9.184 v 16.24 h 5.249 v -16.24 h 9.183 V 0 Z m -2.447,6.802 h 28.51 v -37.653 h -28.51 z" /></g><g
       transform="translate(71.6644,147.4002)"
       id="g68"><path
         id="path70"
         style="fill:none;stroke:#a30000;stroke-width:0.20100001;stroke-linecap:butt;stroke-linejoin:round;stroke-miterlimit:10;stroke-dasharray:none;stroke-opacity:1"
         d="m 0,0 v -22.903 h 9.184 v 16.24 h 5.249 v -16.24 h 9.183 V 0 Z m -2.447,6.802 h 28.51 v -37.653 h -28.51 z" /></g><g
       transform="translate(101.5218,147.4002)"
       id="g72"><path
         id="path74"
         style="fill:#a30000;fill-opacity:1;fill-rule:evenodd;stroke:none"
         d="m 0,0 v -22.903 h 16.027 v 6.662 H 9.149 v 2.187 h 6.205 V -8.57 H 9.149 v 1.907 h 6.878 V 0 Z M -2.482,6.802 H 17.801 V -30.851 H -2.482 Z" /></g><g
       transform="translate(101.5218,147.4002)"
       id="g76"><path
         id="path78"
         style="fill:none;stroke:#a30000;stroke-width:0.20100001;stroke-linecap:butt;stroke-linejoin:round;stroke-miterlimit:10;stroke-dasharray:none;stroke-opacity:1"
         d="m 0,0 v -22.903 h 16.027 v 6.662 H 9.149 v 2.187 h 6.205 V -8.57 H 9.149 v 1.907 h 6.878 V 0 Z M -2.482,6.802 H 17.801 V -30.851 H -2.482 Z" /></g><g
       transform="translate(123.0816,147.4002)"
       id="g80"><path
         id="path82"
         style="fill:#a30000;fill-opacity:1;fill-rule:evenodd;stroke:none"
         d="m 0,0 v -22.903 h 9.149 v 8.709 l 4.822,-8.709 H 24.537 L 16.488,-10.862 24.289,0 H 14.254 L 9.149,-8.259 V 0 Z m -2.447,6.802 h 28.12 v -37.653 h -28.12 z" /></g><g
       transform="translate(123.0816,147.4002)"
       id="g84"><path
         id="path86"
         style="fill:none;stroke:#a30000;stroke-width:0.20100001;stroke-linecap:butt;stroke-linejoin:round;stroke-miterlimit:10;stroke-dasharray:none;stroke-opacity:1"
         d="m 0,0 v -22.903 h 9.149 v 8.709 l 4.822,-8.709 H 24.537 L 16.488,-10.862 24.289,0 H 14.254 L 9.149,-8.259 V 0 Z m -2.447,6.802 h 28.12 v -37.653 h -28.12 z" /></g><g
       transform="translate(150.7038,147.4002)"
       id="g88"><path
         id="path90"
         style="fill:#a30000;fill-opacity:1;fill-rule:evenodd;stroke:none"
         d="m 0,0 v -6.663 h 4.787 v -16.24 h 9.185 v 16.24 h 4.822 V 0 Z M -0.603,6.802 H 19.432 V -30.851 H -0.603 Z" /></g><g
       transform="translate(150.7038,147.4002)"
       id="g92"><path
         id="path94"
         style="fill:none;stroke:#a30000;stroke-width:0.20100001;stroke-linecap:butt;stroke-linejoin:round;stroke-miterlimit:10;stroke-dasharray:none;stroke-opacity:1"
         d="m 0,0 v -6.663 h 4.787 v -16.24 h 9.185 v 16.24 h 4.822 V 0 Z M -0.603,6.802 H 19.432 V -30.851 H -0.603 Z" /></g><path
       id="path96"
       style="fill:#a30000;fill-opacity:1;fill-rule:nonzero;stroke:none"
       d="m 171.449,116.549 h 24.889 v 37.653 h -24.889 z m 2.445,30.851 h 11.986 l 1.596,-0.103 1.454,-0.242 1.277,-0.348 1.105,-0.52 0.944,-0.626 0.784,-0.729 0.639,-0.798 0.494,-0.867 0.466,-1.179 0.289,-1.25 0.102,-1.214 -0.145,-1.528 -0.421,-1.423 -0.639,-1.318 -0.93,-1.214 -0.769,-0.729 -0.959,-0.66 -1.102,-0.451 -1.241,-0.313 -1.383,-0.208 -1.561,-0.069 h -2.8 v -7.114 h -9.186 z m 9.186,-5.969 v -3.886 h 1.028 l 0.78,0.104 0.638,0.209 0.391,0.415 0.282,0.556 0.106,0.695 -0.106,0.692 -0.282,0.522 -0.391,0.382 -0.638,0.243 -0.78,0.068 z" /><g
       transform="translate(183.0798,141.4314)"
       id="g98"><path
         id="path100"
         style="fill:none;stroke:#a30000;stroke-width:0.20100001;stroke-linecap:butt;stroke-linejoin:round;stroke-miterlimit:10;stroke-dasharray:none;stroke-opacity:1"
         d="M 0,0 H 1.028 L 1.808,-0.068 2.446,-0.312 2.837,-0.694 3.12,-1.215 3.226,-1.908 3.12,-2.602 2.837,-3.158 2.446,-3.573 1.808,-3.782 1.028,-3.886 H 0 Z M -9.185,5.969 V -16.935 H 0 v 7.114 h 2.8 l 1.562,0.07 1.382,0.208 1.241,0.312 1.102,0.451 0.959,0.66 0.769,0.729 0.93,1.215 0.639,1.318 0.421,1.423 0.146,1.527 -0.102,1.214 -0.291,1.25 L 11.094,1.735 10.6,2.603 9.961,3.401 9.176,4.13 8.232,4.755 7.127,5.276 5.85,5.623 4.396,5.865 2.8,5.969 Z m -2.446,6.802 h 24.889 v -37.653 h -24.889 z" /></g><g
       transform="translate(46.5943,113.4263)"
       id="g102"><path
         id="path104"
         style="fill:#102332;fill-opacity:1;fill-rule:evenodd;stroke:none"
         d="M 0,0 H 4.929 V -0.868 H 3.014 v -5.24 H 1.915 v 5.24 l -1.915,0 z" /></g><g
       transform="translate(52.5515,113.4263)"
       id="g106"><path
         id="path108"
         style="fill:#102332;fill-opacity:1;fill-rule:evenodd;stroke:none"
         d="M 0,0 H 1.099 V -4.65 L 3.865,0 H 5 V -6.108 H 3.901 v 4.65 L 1.17,-6.108 H 0 Z" /></g><g
       transform="translate(59.1471,113.4263)"
       id="g110"><path
         id="path112"
         style="fill:#102332;fill-opacity:1;fill-rule:evenodd;stroke:none"
         d="m 0,0 h 4.965 v -6.108 h -1.1 v 5.24 H 1.1 v -5.24 H 0 Z" /></g><g
       transform="translate(68.1887,112.6975)"
       id="g114"><path
         id="path116"
         style="fill:#102332;fill-opacity:1;fill-rule:evenodd;stroke:none"
         d="M 0,0 -0.495,-0.035 -0.921,-0.278 -1.24,-0.59 -1.524,-1.041 -1.701,-1.631 -1.737,-2.325 -1.701,-3.054 -1.524,-3.609 -1.24,-4.06 -0.921,-4.373 -0.495,-4.616 0,-4.65 l 0.497,0.034 0.425,0.243 0.355,0.313 0.248,0.451 0.177,0.555 0.037,0.729 -0.037,0.694 -0.177,0.59 -0.248,0.451 -0.355,0.312 -0.425,0.243 z M 0,0.868 0.816,0.798 1.525,0.451 2.128,0 2.519,-0.59 2.802,-1.423 2.908,-2.325 2.802,-3.297 2.519,-4.06 2.128,-4.72 1.525,-5.171 0.816,-5.448 0,-5.518 l -0.815,0.07 -0.709,0.277 -0.533,0.451 -0.46,0.66 -0.248,0.763 -0.072,0.972 0.072,0.902 0.248,0.833 0.46,0.59 0.533,0.451 0.709,0.347 z" /></g><g
       transform="translate(72.2671,113.4263)"
       id="g118"><path
         id="path120"
         style="fill:#102332;fill-opacity:1;fill-rule:evenodd;stroke:none"
         d="M 0,0 H 3.582 V -0.868 H 1.099 v -5.24 l -1.099,0 z" /></g><g
       transform="translate(78.9687,113.4261)"
       id="g122"><path
         id="path124"
         style="fill:#102332;fill-opacity:1;fill-rule:nonzero;stroke:none"
         d="M 0,0 -0.603,-0.277 -1.1,-0.729 V 0 H -2.198 V -7.756 H -1.1 v 2.135 l 0.497,-0.348 0.568,-0.208 0.638,-0.07 0.673,0.07 0.603,0.347 0.568,0.451 0.39,0.625 0.248,0.833 0.071,0.901 -0.071,0.938 -0.177,0.728 -0.39,0.625 L 2.021,-0.277 1.382,0 0.639,0.139 Z M -0.07,-5.309 -0.603,-5.066 -1.1,-4.65 v 2.881 l 0.497,0.589 0.568,0.382 0.603,0.069 0.39,-0.034 0.39,-0.243 0.32,-0.312 0.211,-0.417 0.108,-0.59 L 2.021,-3.02 1.987,-3.748 1.844,-4.338 1.596,-4.789 1.348,-5.101 0.958,-5.344 0.497,-5.379 Z" /></g><g
       transform="translate(86.4515,110.2683)"
       id="g126"><path
         id="path128"
         style="fill:#102332;fill-opacity:1;fill-rule:evenodd;stroke:none"
         d="m 0,0 -0.816,-0.035 -0.638,-0.173 -0.531,-0.243 -0.249,-0.347 -0.107,-0.486 0.036,-0.208 0.071,-0.174 0.07,-0.208 0.179,-0.139 0.389,-0.173 0.531,-0.035 0.533,0.035 0.496,0.173 0.462,0.278 0.354,0.382 V 0 Z M -0.639,3.297 0.106,3.227 0.674,3.089 1.206,2.811 1.56,2.394 1.808,1.805 1.843,0.972 V -2.95 H 0.78 v 0.625 l -0.639,-0.417 -0.673,-0.277 -0.851,-0.07 -0.533,0.035 -0.531,0.174 -0.426,0.277 -0.319,0.382 -0.212,0.416 -0.035,0.486 0.106,0.66 0.319,0.52 0.495,0.417 0.674,0.277 0.958,0.174 1.135,0.069 H 0.78 L 0.744,1.388 0.674,1.735 0.638,1.943 0.497,2.117 0.318,2.256 -0.107,2.394 -0.674,2.429 -1.313,2.394 -1.773,2.152 -2.057,1.839 -2.199,1.423 h -1.063 l 0.141,0.659 0.319,0.555 0.568,0.347 0.674,0.243 z" /></g><g
       transform="translate(93.4362,115.7166)"
       id="g130"><path
         id="path132"
         style="fill:#102332;fill-opacity:1;fill-rule:nonzero;stroke:none"
         d="M 0,0 V -2.637 L -0.39,-2.36 -0.886,-2.221 -1.417,-2.152 -2.128,-2.29 -2.731,-2.568 -3.226,-3.02 -3.58,-3.644 -3.829,-4.477 -3.9,-5.379 l 0.035,-0.937 0.249,-0.763 0.354,-0.66 0.496,-0.451 0.568,-0.277 0.674,-0.07 0.638,0.07 0.496,0.208 0.39,0.347 v -2.135 h 1.1 v 2.135 l 0.354,-0.347 0.496,-0.208 0.603,-0.07 0.709,0.07 0.568,0.277 0.46,0.451 0.391,0.66 0.214,0.763 L 5,-5.379 4.895,-4.477 4.681,-3.644 4.29,-3.02 3.795,-2.568 3.192,-2.29 2.518,-2.152 1.916,-2.221 1.454,-2.36 1.1,-2.637 V 0 Z M 1.916,-7.635 1.561,-7.392 1.313,-7.184 1.171,-6.941 1.1,-6.733 v 3.124 l 0.319,0.312 0.46,0.243 L 2.376,-3.02 2.837,-3.054 3.192,-3.297 3.476,-3.609 3.653,-4.06 3.795,-4.65 3.83,-5.379 3.795,-6.212 3.618,-6.871 3.334,-7.322 2.944,-7.6 2.376,-7.67 Z m -3.759,0.035 -0.426,0.278 -0.319,0.451 -0.143,0.659 -0.069,0.833 0.034,0.729 0.142,0.59 0.213,0.451 0.283,0.312 0.391,0.243 0.391,0.034 0.566,-0.034 0.462,-0.243 L 0,-3.609 V -6.733 L -0.069,-6.801 -0.106,-6.941 -0.177,-7.115 -0.39,-7.322 -0.78,-7.6 -1.346,-7.67 Z" /></g><g
       transform="translate(99.6061,113.4263)"
       id="g134"><path
         id="path136"
         style="fill:#102332;fill-opacity:1;fill-rule:evenodd;stroke:none"
         d="M 0,0 H 1.136 V -4.65 L 3.83,0 H 5.036 V -6.108 H 3.901 v 4.65 L 1.207,-6.108 H 0 Z" /></g><g
       transform="translate(108.3293,112.5587)"
       id="g138"><path
         id="path140"
         style="fill:#102332;fill-opacity:1;fill-rule:evenodd;stroke:none"
         d="m 0,0 -0.495,-0.035 -0.426,-0.173 -0.213,-0.347 -0.106,-0.382 0.141,-0.486 0.284,-0.312 0.461,-0.208 0.674,-0.07 h 1.311 l 0,2.013 z m -0.141,0.868 h 2.8 V -5.24 H 1.631 v 2.36 H 0.603 L 0.248,-2.915 -0.141,-3.089 -0.389,-3.436 -0.674,-3.887 -1.346,-5.24 h -1.242 l 0.816,1.527 0.318,0.486 0.32,0.312 0.425,0.173 -0.709,0.243 -0.496,0.417 -0.32,0.486 -0.106,0.694 0.071,0.485 0.212,0.417 0.32,0.382 0.425,0.277 0.532,0.139 z" /></g><g
       transform="translate(115.7411,113.4263)"
       id="g142"><path
         id="path144"
         style="fill:#102332;fill-opacity:1;fill-rule:evenodd;stroke:none"
         d="M 0,0 H 4.928 V -6.108 H 3.9 v 5.24 H 1.099 v -5.24 H 0 Z" /></g><g
       transform="translate(124.7838,112.6975)"
       id="g146"><path
         id="path148"
         style="fill:#102332;fill-opacity:1;fill-rule:evenodd;stroke:none"
         d="m 0,0 -0.462,-0.035 -0.425,-0.243 -0.355,-0.312 -0.283,-0.451 -0.142,-0.59 -0.106,-0.694 0.106,-0.729 0.142,-0.555 0.283,-0.451 0.355,-0.313 0.425,-0.243 L 0,-4.65 l 0.495,0.034 0.391,0.243 0.389,0.313 0.285,0.451 0.106,0.555 0.071,0.729 -0.071,0.694 -0.106,0.59 -0.285,0.451 -0.389,0.312 -0.391,0.243 z M 0,0.868 0.815,0.798 1.489,0.451 2.091,0 2.517,-0.59 2.765,-1.423 2.871,-2.325 2.765,-3.297 2.517,-4.06 2.091,-4.72 1.489,-5.171 0.815,-5.448 0,-5.518 l -0.781,0.07 -0.709,0.277 -0.603,0.451 -0.389,0.66 -0.285,0.763 -0.106,0.972 0.106,0.902 0.285,0.833 0.389,0.59 0.603,0.451 0.709,0.347 z" /></g><g
       transform="translate(129.3575,113.4263)"
       id="g150"><path
         id="path152"
         style="fill:#102332;fill-opacity:1;fill-rule:evenodd;stroke:none"
         d="M 0,0 H 4.645 V -6.108 H 3.582 v 5.24 H 1.063 V -4.026 L 0.993,-4.789 0.851,-5.379 0.638,-5.761 0.354,-5.969 -0.035,-6.108 -0.497,-6.177 H -0.78 l -0.248,0.069 h -0.214 v 0.868 l 0.32,-0.07 h 0.284 0.178 l 0.14,0.07 0.072,0.069 0.106,0.104 0.107,0.382 L 0,-4.06 Z" /></g><g
       transform="translate(135.5986,113.4263)"
       id="g154"><path
         id="path156"
         style="fill:#102332;fill-opacity:1;fill-rule:evenodd;stroke:none"
         d="M 0,0 H 1.099 V -2.568 H 3.865 V 0 H 4.964 V -6.108 H 3.865 v 2.742 H 1.099 V -6.108 H 0 Z" /></g><g
       transform="translate(144.6414,112.6975)"
       id="g158"><path
         id="path160"
         style="fill:#102332;fill-opacity:1;fill-rule:evenodd;stroke:none"
         d="m 0,0 -0.497,-0.035 -0.425,-0.243 -0.32,-0.312 -0.283,-0.451 -0.177,-0.59 -0.037,-0.694 0.037,-0.729 0.177,-0.555 0.283,-0.451 0.32,-0.313 0.425,-0.243 L 0,-4.65 l 0.495,0.034 0.426,0.243 0.354,0.313 0.249,0.451 0.177,0.555 0.036,0.729 -0.036,0.694 -0.177,0.59 -0.249,0.451 -0.354,0.312 -0.426,0.243 z M 0,0.868 0.815,0.798 1.524,0.451 2.091,0 2.517,-0.59 2.8,-1.423 2.871,-2.325 2.8,-3.297 2.517,-4.06 2.091,-4.72 1.524,-5.171 0.815,-5.448 0,-5.518 l -0.816,0.07 -0.709,0.277 -0.532,0.451 -0.461,0.66 -0.249,0.763 -0.071,0.972 0.071,0.902 0.249,0.833 0.461,0.59 0.532,0.451 0.709,0.347 z" /></g><g
       transform="translate(148.7183,113.4263)"
       id="g162"><path
         id="path164"
         style="fill:#102332;fill-opacity:1;fill-rule:evenodd;stroke:none"
         d="M 0,0 H 3.582 V -0.868 H 1.099 v -5.24 l -1.099,0 z" /></g><g
       transform="translate(155.7045,112.6975)"
       id="g166"><path
         id="path168"
         style="fill:#102332;fill-opacity:1;fill-rule:evenodd;stroke:none"
         d="m 0,0 -0.462,-0.035 -0.425,-0.243 -0.355,-0.312 -0.283,-0.451 -0.177,-0.59 -0.071,-0.694 0.071,-0.729 0.177,-0.555 0.283,-0.451 0.355,-0.313 0.425,-0.243 L 0,-4.65 l 0.497,0.034 0.425,0.243 0.355,0.313 0.283,0.451 0.142,0.555 0.035,0.729 -0.035,0.694 -0.142,0.59 -0.283,0.451 -0.355,0.312 -0.425,0.243 z M 0,0.868 0.815,0.798 1.489,0.451 2.091,0 2.517,-0.59 2.802,-1.423 2.871,-2.325 2.802,-3.297 2.517,-4.06 2.091,-4.72 1.489,-5.171 0.815,-5.448 0,-5.518 l -0.78,0.07 -0.71,0.277 -0.603,0.451 -0.389,0.66 -0.285,0.763 -0.106,0.972 0.106,0.902 0.285,0.833 0.389,0.59 0.603,0.451 0.71,0.347 z" /></g><g
       transform="translate(166.8024,113.4261)"
       id="g170"><path
         id="path172"
         style="fill:#102332;fill-opacity:1;fill-rule:nonzero;stroke:none"
         d="M 0,0 V -5.24 H -2.8 V 0 H -3.865 V -6.107 H 0.851 V -7.704 H 1.95 V -5.24 H 1.1 L 1.1,0 Z" /></g><g
       transform="translate(169.6753,113.4263)"
       id="g174"><path
         id="path176"
         style="fill:#102332;fill-opacity:1;fill-rule:evenodd;stroke:none"
         d="M 0,0 H 1.099 V -4.65 L 3.865,0 H 4.999 V -6.108 H 3.901 v 4.65 L 1.206,-6.108 H 0 Z" /></g><g
       transform="translate(176.3056,113.4263)"
       id="g178"><path
         id="path180"
         style="fill:#102332;fill-opacity:1;fill-rule:evenodd;stroke:none"
         d="M 0,0 H 1.099 V -2.603 L 3.441,0 H 4.824 L 2.482,-2.429 5.036,-6.108 H 3.759 L 1.773,-3.158 1.099,-3.887 V -6.108 H 0 Z" /></g><g
       transform="translate(182.6891,113.4263)"
       id="g182"><path
         id="path184"
         style="fill:#102332;fill-opacity:1;fill-rule:evenodd;stroke:none"
         d="M 0,0 H 4.61 V -6.108 H 3.545 v 5.24 H 1.028 V -4.026 L 0.993,-4.789 0.851,-5.379 0.638,-5.761 0.354,-5.969 -0.071,-6.108 -0.532,-6.177 H -0.78 l -0.248,0.069 H -1.24 v 0.868 l 0.318,-0.07 h 0.248 0.214 l 0.106,0.07 0.106,0.069 0.106,0.104 0.071,0.382 L 0,-4.06 Z" /></g><g
       transform="translate(192.0528,110.2683)"
       id="g186"><path
         id="path188"
         style="fill:#102332;fill-opacity:1;fill-rule:evenodd;stroke:none"
         d="m 0,0 -0.857,-0.035 -0.67,-0.173 -0.461,-0.243 -0.284,-0.347 -0.071,-0.486 v -0.208 l 0.071,-0.174 0.106,-0.208 0.143,-0.139 0.389,-0.173 0.574,-0.035 0.494,0.035 0.493,0.173 0.465,0.278 0.32,0.382 0,1.353 z M -0.683,3.297 0.073,3.227 0.668,3.089 1.162,2.811 1.554,2.394 1.728,1.805 1.801,0.972 V -2.95 H 0.712 v 0.625 l -0.61,-0.417 -0.668,-0.277 -0.814,-0.07 -0.608,0.035 -0.461,0.174 -0.462,0.277 -0.318,0.382 -0.177,0.416 -0.071,0.486 0.106,0.66 0.283,0.52 0.533,0.417 0.709,0.277 0.916,0.174 1.133,0.069 h 0.509 v 0.59 L 0.668,1.735 0.566,1.943 0.494,2.117 0.32,2.256 -0.102,2.394 -0.712,2.429 -1.351,2.394 -1.811,2.152 -2.129,1.839 -2.237,1.423 h -1.099 l 0.213,0.659 0.32,0.555 0.495,0.347 0.745,0.243 z" /></g><g
       id="g190"><g
         clip-path="url(#clipPath196)"
         id="g192" /></g></g></svg>